# xmcd CD database file
#
# Track frame offsets:
#	150
#	34925
#	58315
#	81727
#	103187
#	123812
#	142247
#	164922
#	187412
#	212010
#	232002
#
# Disc length: 3454 seconds
#
# Revision: 0
# Processed by: cddbd v1.4PL0 Copyright (c) Steve Scherf et al.
# Submitted via: CDex 1.51
#
DISCID=b80d7c0b
DTITLE=Anders Persson - At Large
DYEAR=1996
DGENRE=Jazz
TTITLE0=Autumn in New York
TTITLE1=Bye Bye Blackbird
TTITLE2=Nature Boy
TTITLE3=Berlin
TTITLE4=Waltz for Billy
TTITLE5=Magic Man
TTITLE6=I'll remember April
TTITLE7=All of You
TTITLE8=Lintune
TTITLE9=Django
TTITLE10=Le fruit défendu
EXTD=YEAR: 1996
EXTT0=
EXTT1=
EXTT2=
EXTT3=
EXTT4=
EXTT5=
EXTT6=
EXTT7=
EXTT8=
EXTT9=
EXTT10=
PLAYORDER=
